HIERARCHY
ROOT ROOT
{
	OFFSET 0.000000 56.020000 -5.659234
	CHANNELS 6 Xposition Yposition Zposition Xrotation Yrotation Zrotation 
	JOINT C_spine0001_bind_JNT
	{
		OFFSET 0.000000 1.618999 0.000000
		CHANNELS 3 Xrotation Yrotation Zrotation
		JOINT C_spine0002_bind_JNT
		{
			OFFSET 0.000000 4.942001 0.000001
			CHANNELS 3 Xrotation Yrotation Zrotation
			JOINT C_spine0003_bind_JNT
			{
				OFFSET 0.000000 4.942001 -0.000000
				CHANNELS 3 Xrotation Yrotation Zrotation
				JOINT C_neck0001_bind_JNT
				{
					OFFSET 0.000000 17.026009 -0.000000
					CHANNELS 3 Xrotation Yrotation Zrotation
					JOINT C_neck0002_bind_JNT
					{
						OFFSET 0.000000 3.249985 0.000000
						CHANNELS 3 Xrotation Yrotation Zrotation
						JOINT C_head_bind_JNT
						{
							OFFSET 0.000000 5.278008 0.000000
							CHANNELS 3 Xrotation Yrotation Zrotation
							End Site
							{
								OFFSET 0.000000 0.000000 0.000000
							}
						}
					}
				}
				JOINT L_clavicle_bind_JNT
				{
					OFFSET 4.590000 12.067001 0.834000
					CHANNELS 3 Xrotation Yrotation Zrotation
					JOINT L_armUpper0001_bind_JNT
					{
						OFFSET 7.812635 0.512001 -3.452945
						CHANNELS 3 Xrotation Yrotation Zrotation
						JOINT L_armLower0001_bind_JNT
						{
							OFFSET 15.265892 -6.552116 -0.058157
							CHANNELS 3 Xrotation Yrotation Zrotation
							JOINT L_hand0001_bind_JNT
							{
								OFFSET 14.747667 -6.369995 5.049225
								CHANNELS 3 Xrotation Yrotation Zrotation
								End Site
								{
									OFFSET 0.000000 0.000000 0.000000
								}
							}
						}
					}
				}
				JOINT R_clavicle_bind_JNT
				{
					OFFSET -4.590000 12.067001 0.834000
					CHANNELS 3 Xrotation Yrotation Zrotation
					JOINT R_armUpper0001_bind_JNT
					{
						OFFSET -7.812635 0.512001 -3.452945
						CHANNELS 3 Xrotation Yrotation Zrotation
						JOINT R_armLower0001_bind_JNT
						{
							OFFSET -15.265890 -6.552124 -0.058160
							CHANNELS 3 Xrotation Yrotation Zrotation
							JOINT R_hand0001_bind_JNT
							{
								OFFSET -14.746784 -6.369629 5.048937
								CHANNELS 3 Xrotation Yrotation Zrotation
								End Site
								{
									OFFSET 0.000000 0.000000 0.000000
								}
							}
						}
					}
				}
			}
		}
	}
	JOINT C_pelvis0001_bind_JNT
	{
		OFFSET -0.000000 0.000000 0.000000
		CHANNELS 3 Xrotation Yrotation Zrotation
		JOINT L_legUpper0001_bind_JNT
		{
			OFFSET 6.599999 -6.027000 0.539000
			CHANNELS 3 Xrotation Yrotation Zrotation
			JOINT L_legLower0001_bind_JNT
			{
				OFFSET -0.140713 -19.187443 0.040261
				CHANNELS 3 Xrotation Yrotation Zrotation
				JOINT L_foot0001_bind_JNT
				{
					OFFSET -0.132215 -18.028637 -1.138370
					CHANNELS 3 Xrotation Yrotation Zrotation
					JOINT L_foot0002_bind_JNT
					{
						OFFSET 0.007014 -4.693133 9.886524
						CHANNELS 3 Xrotation Yrotation Zrotation
						End Site
						{
							OFFSET 0.000000 0.000000 0.000000
						}
					}
				}
			}
		}
		JOINT R_legUpper0001_bind_JNT
		{
			OFFSET -6.599999 -6.027000 0.539000
			CHANNELS 3 Xrotation Yrotation Zrotation
			JOINT R_legLower0001_bind_JNT
			{
				OFFSET 0.140710 -19.187164 0.040550
				CHANNELS 3 Xrotation Yrotation Zrotation
				JOINT R_foot0001_bind_JNT
				{
					OFFSET 0.132215 -18.028633 -1.138362
					CHANNELS 3 Xrotation Yrotation Zrotation
					JOINT R_foot0002_bind_JNT
					{
						OFFSET -0.007014 -4.693128 9.886505
						CHANNELS 3 Xrotation Yrotation Zrotation
						End Site
						{
							OFFSET 0.000000 0.000000 0.000000
						}
					}
				}
			}
		}
	}
}
MOTION
Frames: 13
Frame Time: 0.033333
0.000000 48.901432 0.000000 0.070009 -3.823465 -0.028465 5.418671 2.701883 -4.458068 -3.288751 0.505795 -1.961661 4.358723 0.280299 -3.037293 17.317530 2.062122 -2.231612 -0.061904 0.199602 -0.135501 -5.901569 4.569931 -2.175151 14.334930 9.833796 24.283285 -24.283064 -13.307447 -78.503403 -9.940211 10.264588 -10.489938 -3.007910 -14.807587 -23.936598 18.244186 -3.537596 -20.473854 -25.352417 3.918200 81.274841 10.502073 -6.362232 8.403240 -10.277900 18.406260 27.119101 5.796165 2.362503 -1.736867 -7.575309 -0.246009 -2.690664 8.733135 0.483727 -0.319654 -6.916413 -7.183609 2.250788 -1.156739 -0.624473 0.819285 -11.638207 -5.543493 -6.785228 29.262234 -2.681485 0.955066 -5.381780 11.950264 4.633479 -16.637060 2.396610 -1.054810 
0.175531 49.018181 0.205814 0.010809 -4.005488 -0.018834 4.964896 2.727871 -4.660641 -3.522368 0.181867 -2.042075 4.526825 0.530929 -3.787608 16.982693 1.760880 -1.858685 0.055053 0.283023 -0.014418 -5.392531 4.296480 -1.409839 14.471553 10.886513 24.860884 -25.029455 -14.475497 -78.436279 -11.567614 9.160418 -10.420144 -2.830087 -13.252575 -23.450609 18.891739 -3.990009 -20.372787 -26.881449 4.337546 82.313667 11.338343 -6.106861 8.266913 -10.522317 18.609282 26.609661 5.701746 2.515166 -1.737822 -7.414224 -0.193237 -2.922302 9.114364 0.747896 -0.315995 -6.615729 -8.235711 2.650457 -1.212885 -0.682097 0.794201 -11.949719 -4.358872 -5.461178 31.060452 -3.921147 1.669604 -4.567925 12.903159 2.759012 -17.627590 1.894780 -0.308428 
0.196192 49.010994 0.392459 0.021570 -4.183207 -0.028939 4.924204 3.427989 -5.314677 -3.507764 0.317761 -1.922026 4.785054 0.322721 -3.970658 17.043749 1.877368 -1.752528 0.093587 0.196091 -0.011158 -4.238809 4.468714 -1.518390 13.723593 10.689789 25.002846 -24.919146 -14.329051 -77.899986 -12.104075 8.927666 -9.971466 -3.298986 -12.833792 -23.820318 18.384764 -3.670801 -20.434904 -27.044193 3.608557 82.766106 11.321096 -6.133745 7.976260 -10.005412 18.336695 26.771179 5.642551 3.530718 -2.065403 -6.460548 -0.756030 -2.931352 8.341220 0.523143 -0.148415 -6.753419 -9.124600 2.597906 -0.803470 -0.730529 0.813142 -13.456799 -4.716146 -4.896753 31.994627 -3.837409 1.469792 -5.165267 12.568154 2.107016 -15.054916 1.504556 0.473658 
0.079871 49.043388 0.815608 0.021747 -3.787324 -0.035794 4.858967 3.525184 -5.404435 -3.486514 -0.012240 -2.042238 4.525090 0.294358 -4.032552 17.372805 1.998556 -1.800285 0.089886 0.214592 -0.081181 -4.049627 4.576406 -1.717999 13.524855 10.692595 24.900604 -25.124777 -14.658927 -77.725655 -12.218198 8.429705 -9.635809 -3.402536 -12.965341 -23.801319 18.494505 -3.546895 -20.641197 -27.069515 3.741664 82.693863 11.254135 -6.032646 8.144829 -10.263350 18.219540 26.966450 5.441012 3.699462 -2.409196 -5.213266 -1.231828 -2.346141 7.458136 0.610848 -0.300087 -6.600780 -9.476201 2.609213 -0.985442 -0.805823 0.781149 -14.074925 -4.375799 -4.179842 31.278770 -3.643489 1.598438 -6.129529 12.746913 1.449299 -12.655186 1.398721 0.858432 
-0.114838 49.216740 1.261947 0.029330 -3.569016 -0.034407 4.705105 3.658967 -5.647004 -3.456725 0.053960 -2.005898 4.521379 0.133603 -4.372185 17.667934 2.142241 -1.952895 0.059711 0.144773 0.045099 -3.389060 4.602443 -1.966674 13.531962 10.685321 24.956488 -25.422131 -14.870042 -77.202019 -12.375113 7.626635 -9.395107 -3.428835 -13.041310 -23.975494 18.157967 -3.158163 -20.798740 -26.444630 3.328917 82.801979 11.621696 -5.659127 8.388610 -10.690195 18.296322 26.978222 5.499540 3.790013 -2.774738 -4.446365 -0.999649 -1.589461 6.792983 0.453956 -0.158501 -6.679272 -9.597749 2.141178 -1.060447 -1.213721 0.723315 -14.477661 -4.291073 -3.277111 28.979166 -2.862537 1.232869 -6.957238 12.815705 1.208510 -9.627463 1.329532 0.969913 
-0.295946 49.269321 1.821184 0.030547 -3.349772 -0.031654 4.729910 3.784169 -5.718680 -3.569084 -0.019147 -2.064674 4.407416 0.070774 -4.360797 17.817865 2.177493 -1.995320 0.153686 0.102736 -0.101792 -3.435054 4.750078 -2.135899 13.370879 10.821529 24.681351 -24.957706 -15.174832 -76.572861 -12.659879 6.515668 -9.213721 -3.074899 -13.029249 -24.464167 18.376102 -3.267002 -21.076763 -26.176603 3.399720 82.658913 11.579769 -5.201135 8.683734 -10.516913 18.091202 27.338535 5.481140 3.999506 -2.923945 -3.655703 -0.816425 -1.035531 6.074183 0.467894 -0.086598 -6.477899 -9.951800 1.791396 -1.262116 -1.062156 0.723983 -14.014608 -3.656566 -2.642527 25.914085 -2.638845 1.021385 -7.596628 13.210442 1.751311 -7.084630 1.670521 0.808637 
-0.542626 49.325294 2.433372 0.027665 -2.842879 -0.035540 4.562634 3.513304 -5.670573 -3.565426 -0.122893 -2.061142 4.408295 0.121199 -4.558221 17.901796 2.171607 -2.109451 0.007553 0.256725 -0.095622 -3.010555 4.861369 -2.503907 13.111257 10.703037 24.549006 -24.378492 -15.080114 -75.758766 -13.134934 5.272195 -9.355038 -2.718879 -12.792995 -24.549858 18.196136 -3.246568 -21.088400 -25.347908 3.334019 82.337280 12.057572 -4.696158 9.032221 -10.668997 18.196001 27.590294 5.539102 3.626604 -2.925184 -3.083900 -0.735820 -0.558624 5.679388 0.741887 -0.476925 -6.487062 -10.132127 1.855728 -1.436095 -1.177034 0.781269 -13.097703 -2.736508 -1.917848 22.673943 -2.418045 1.082879 -8.165702 13.465066 2.242546 -4.643180 1.981648 0.499598 
-0.774653 49.372414 2.992214 0.031044 -2.719562 -0.028019 4.342988 3.611565 -5.617280 -3.579124 -0.051896 -2.122392 4.304409 0.000797 -4.563468 17.976999 2.393572 -2.228345 0.281385 0.031908 -0.119588 -3.171744 4.978866 -2.531561 13.107845 10.988055 23.966877 -24.246244 -15.385575 -75.269264 -13.492454 4.367770 -9.253621 -2.642994 -12.834389 -24.493298 18.389620 -3.150606 -21.237360 -24.762634 3.314843 82.094139 12.233505 -4.500408 9.094301 -10.539412 18.270956 27.953281 5.553603 3.826580 -3.006523 -2.461782 -0.881340 0.068237 5.403594 0.885682 -0.679683 -6.496448 -10.123731 1.469534 -1.689536 -1.302396 0.713869 -12.008107 -2.399843 -0.872134 19.241289 -2.605456 1.145867 -8.305767 14.145694 2.682459 -3.201275 1.993514 0.036772 
-0.920362 49.361954 3.507371 0.024340 -2.550482 -0.025708 4.369351 3.758124 -5.621577 -3.611819 -0.110233 -2.143684 4.386054 0.339762 -4.715002 17.980757 2.208151 -2.403803 0.122737 0.149047 -0.005456 -2.709248 4.975771 -2.866179 12.934373 11.039858 23.529369 -24.110300 -15.481444 -74.467735 -13.763792 3.370201 -9.435575 -2.495460 -12.986971 -24.374392 18.523270 -3.506234 -21.349379 -24.488543 3.257267 82.006882 12.801588 -4.428094 9.320166 -10.879963 18.495770 28.119610 5.799882 3.947875 -2.812733 -2.172544 -1.414767 0.137427 5.723774 1.270617 -0.932677 -7.041109 -10.261029 1.432361 -1.998896 -1.391915 0.721769 -11.050255 -2.071151 -0.149592 15.949389 -2.971925 0.641778 -7.768540 14.446035 2.286678 -2.542412 1.749374 -0.032767 
-1.065847 49.277927 4.129383 0.028734 -2.340276 -0.030358 4.176182 3.734838 -5.496384 -3.795856 -0.092605 -2.147504 4.219444 0.331642 -4.685434 18.139481 2.402115 -2.408995 0.083006 0.192106 -0.092938 -2.761293 5.060560 -2.874335 13.129129 11.418505 23.427246 -24.198204 -15.274455 -74.422478 -14.043676 2.800372 -9.679794 -2.374346 -12.974951 -23.833738 18.779224 -3.330965 -21.400940 -24.114609 3.129235 81.801628 13.316408 -5.086582 9.122234 -11.116718 18.585596 28.545008 5.821074 4.101554 -2.408977 -1.817995 -1.849696 0.068527 6.314187 1.570382 -0.966244 -7.746038 -10.411711 1.106146 -2.192039 -1.293061 0.718482 -9.971590 -1.932656 -0.023930 13.839526 -3.175273 0.239640 -6.904744 14.090809 1.428006 -2.500329 1.633070 0.022813 
-1.300890 49.232986 4.665310 0.021436 -2.300094 -0.025880 4.110632 3.968168 -5.523761 -3.915840 -0.072284 -2.062866 4.186420 0.478778 -4.631962 17.994440 2.264128 -2.456290 0.209518 -0.004576 0.035691 -2.775964 5.031051 -2.835377 12.917652 11.348677 23.202675 -23.679756 -15.097378 -73.949829 -14.920232 2.084896 -10.054735 -2.339766 -13.035930 -23.443176 18.893858 -3.550647 -21.553350 -23.869816 2.913199 81.734123 13.866804 -5.748572 8.948643 -11.180058 18.631617 28.943296 5.774468 4.447893 -2.337079 -1.787069 -2.181656 0.275883 7.450682 1.621703 -0.881473 -8.475661 -10.559482 0.710396 -2.801600 -1.323683 0.711898 -8.420850 -1.769719 0.429432 12.422118 -3.208892 0.233311 -6.716905 13.955850 0.885463 -2.823664 1.336523 -0.139674 
-1.477251 49.159603 5.113170 0.025631 -2.376268 -0.028330 4.110901 3.975585 -5.553855 -4.081902 -0.092031 -2.112316 4.056122 0.535683 -4.536138 18.076347 2.274056 -2.431112 0.055266 0.002583 -0.028642 -2.625538 5.052379 -2.832199 13.083039 11.340179 23.035765 -23.658381 -14.625834 -73.411148 -15.565744 1.756238 -10.459574 -2.366430 -13.119688 -22.826460 18.795124 -3.554058 -21.460381 -22.903500 2.649437 81.404442 14.114576 -5.860711 8.394068 -11.178933 18.204779 29.340496 5.889132 4.478543 -2.341056 -1.970009 -2.366875 0.365924 8.929236 1.510478 -0.703075 -9.328159 -10.573683 0.585152 -3.338660 -1.276609 0.663373 -8.134936 -1.730001 0.638578 11.872585 -3.366027 0.392353 -6.621300 13.755704 0.493103 -2.672424 1.416626 -0.058675 
-1.696811 49.145954 5.710974 0.024895 -2.046911 -0.028543 3.902466 3.495259 -5.653039 -4.029532 -0.171786 -2.082796 3.955517 0.580389 -4.425766 18.048416 2.333699 -2.382040 0.120504 0.015283 -0.019522 -2.711349 5.134301 -2.670976 12.945485 11.274037 22.904011 -23.346903 -13.975098 -73.004570 -16.049427 1.452477 -10.492924 -2.467762 -13.011501 -22.379910 18.487013 -3.619245 -21.329618 -21.889910 2.442299 80.787460 14.501364 -6.088113 8.412702 -11.080958 18.130758 29.752907 5.794004 4.069929 -2.498857 -2.468635 -2.263182 0.771614 10.891409 1.463321 -0.662093 -10.185489 -10.691412 0.291358 -3.799070 -1.352719 0.864238 -7.175801 -1.726007 1.134126 11.369984 -3.555291 0.393400 -6.836472 13.899334 0.630622 -2.666884 1.416730 -0.206649 
